<svg id="Lager_1" data-name="Lager 1" xmlns="http://www.w3.org/2000/svg" xmlns:xlink="http://www.w3.org/1999/xlink" viewBox="0 0 286.72 278.26"><defs><style>.cls-1,.cls-10,.cls-11,.cls-12,.cls-13,.cls-14,.cls-15,.cls-16,.cls-17,.cls-18,.cls-19,.cls-2,.cls-20,.cls-21,.cls-22,.cls-23,.cls-24,.cls-25,.cls-26,.cls-27,.cls-28,.cls-29,.cls-3,.cls-30,.cls-31,.cls-32,.cls-4,.cls-5,.cls-6,.cls-7,.cls-8,.cls-9{fill-rule:evenodd;}.cls-1{fill:url(#Radial_Gradient_33);}.cls-2{fill:url(#Radial_Gradient_32);}.cls-3{fill:url(#Radial_Gradient_31);}.cls-4{fill:url(#Radial_Gradient_30);}.cls-5{fill:url(#Radial_Gradient_29);}.cls-6{fill:url(#Radial_Gradient_12);}.cls-7{fill:url(#Radial_Gradient_11);}.cls-8{fill:url(#Linear_Gradient_3);}.cls-9{fill:url(#Radial_Gradient_10);}.cls-10{fill:url(#Radial_Gradient_9);}.cls-11{fill:url(#Radial_Gradient_8);}.cls-12{fill:url(#Radial_Gradient_7);}.cls-13{fill:url(#Radial_Gradient_6);}.cls-14{fill:url(#Radial_Gradient_5);}.cls-15{fill:url(#Radial_Gradient_3);}.cls-16{fill:url(#Radial_Gradient_3-2);}.cls-17{fill:url(#Radial_Gradient_4);}.cls-18{fill:url(#Radial_Gradient_3-3);}.cls-19{fill:url(#Radial_Gradient_3-4);}.cls-20{fill:url(#Radial_Gradient_3-5);}.cls-21{fill:url(#Radial_Gradient_2);}.cls-22{fill:url(#Radial_Gradient_2-2);}.cls-23{fill:url(#Radial_Gradient_2-3);}.cls-24{fill:url(#Linear_Gradient_3-2);}.cls-25{fill:url(#Linear_Gradient_2);}.cls-26{fill:url(#Linear_Gradient_2-2);}.cls-27{fill:url(#Linear_Gradient_2-3);}.cls-28{fill:url(#Linear_Gradient_2-4);}.cls-29{fill:url(#Linear_Gradient_2-5);}.cls-30{fill:url(#Linear_Gradient_2-6);}.cls-31{fill:url(#Linear_Gradient_2-7);}.cls-32{fill:url(#Linear_Gradient_2-8);}</style><radialGradient id="Radial_Gradient_33" cx="484" cy="221.44" r="117.51" gradientUnits="userSpaceOnUse"><stop offset="0" stop-color="#0e0300"/><stop offset="0.7" stop-color="#ea0a5d"/><stop offset="1" stop-color="#ac063a"/></radialGradient><radialGradient id="Radial_Gradient_32" cx="415.86" cy="257.7" r="123.26" gradientUnits="userSpaceOnUse"><stop offset="0" stop-color="#0e0300"/><stop offset="0.61" stop-color="#ea0a5d"/><stop offset="1" stop-color="#ac063a"/></radialGradient><radialGradient id="Radial_Gradient_31" cx="510.71" cy="272.1" r="154.09" gradientUnits="userSpaceOnUse"><stop offset="0" stop-color="#0e0300"/><stop offset="0.65" stop-color="#ea0a5d"/><stop offset="1" stop-color="#ac063a"/></radialGradient><radialGradient id="Radial_Gradient_30" cx="475.2" cy="330.23" r="133.46" gradientUnits="userSpaceOnUse"><stop offset="0" stop-color="#0e0300"/><stop offset="0.55" stop-color="#ea0a5d"/><stop offset="1" stop-color="#ac063a"/></radialGradient><radialGradient id="Radial_Gradient_29" cx="425.75" cy="267.61" r="111.12" gradientUnits="userSpaceOnUse"><stop offset="0" stop-color="#0e0300"/><stop offset="0.68" stop-color="#ea0a5d"/><stop offset="1" stop-color="#ac063a"/></radialGradient><radialGradient id="Radial_Gradient_12" cx="456.51" cy="253.32" r="162.72" gradientUnits="userSpaceOnUse"><stop offset="0" stop-color="#0e0300"/><stop offset="0.53" stop-color="#ea0a5d"/><stop offset="1" stop-color="#ac063a"/></radialGradient><radialGradient id="Radial_Gradient_11" cx="501.92" cy="245.73" r="120.23" gradientUnits="userSpaceOnUse"><stop offset="0" stop-color="#0e0300"/><stop offset="0.52" stop-color="#ea0a5d"/><stop offset="1" stop-color="#ac063a"/></radialGradient><linearGradient id="Linear_Gradient_3" x1="548.92" y1="351.66" x2="519.91" y2="305.06" gradientUnits="userSpaceOnUse"><stop offset="0" stop-color="#fff"/><stop offset="1" stop-color="#e4075e"/></linearGradient><radialGradient id="Radial_Gradient_10" cx="464.12" cy="283.53" r="132.22" gradientUnits="userSpaceOnUse"><stop offset="0" stop-color="#0e0300"/><stop offset="0.67" stop-color="#ea0a5d"/><stop offset="1" stop-color="#ac063a"/></radialGradient><radialGradient id="Radial_Gradient_9" cx="476.44" cy="253.65" r="131.46" gradientUnits="userSpaceOnUse"><stop offset="0" stop-color="#0e0300"/><stop offset="0.56" stop-color="#ea0a5d"/><stop offset="1" stop-color="#ac063a"/></radialGradient><radialGradient id="Radial_Gradient_8" cx="467.55" cy="267.1" r="148.79" gradientUnits="userSpaceOnUse"><stop offset="0" stop-color="#0e0300"/><stop offset="0.44" stop-color="#ea0a5d"/><stop offset="1" stop-color="#ac063a"/></radialGradient><radialGradient id="Radial_Gradient_7" cx="462.87" cy="243.71" r="88.45" gradientUnits="userSpaceOnUse"><stop offset="0" stop-color="#0e0300"/><stop offset="0.37" stop-color="#ea0a5d"/><stop offset="1" stop-color="#ac063a"/></radialGradient><radialGradient id="Radial_Gradient_6" cx="465.5" cy="247.97" r="43.5" gradientUnits="userSpaceOnUse"><stop offset="0" stop-color="#0e0300"/><stop offset="0.63" stop-color="#ea0a5d"/><stop offset="1" stop-color="#ac063a"/></radialGradient><radialGradient id="Radial_Gradient_5" cx="468.54" cy="247.69" r="36.71" gradientUnits="userSpaceOnUse"><stop offset="0" stop-color="#0e0300"/><stop offset="0.64" stop-color="#ea0a5d"/><stop offset="1" stop-color="#ac063a"/></radialGradient><radialGradient id="Radial_Gradient_3" cx="470.85" cy="234.22" r="25.47" gradientUnits="userSpaceOnUse"><stop offset="0" stop-color="#d7074f"/><stop offset="0.48" stop-color="#992041"/><stop offset="1" stop-color="#0e0300"/></radialGradient><radialGradient id="Radial_Gradient_3-2" cx="457.7" cy="233.33" r="44.35" xlink:href="#Radial_Gradient_3"/><radialGradient id="Radial_Gradient_4" cx="486.02" cy="220.16" r="72.52" gradientUnits="userSpaceOnUse"><stop offset="0" stop-color="#d7074f"/><stop offset="0.46" stop-color="#992041"/><stop offset="1" stop-color="#0e0300"/></radialGradient><radialGradient id="Radial_Gradient_3-3" cx="462.1" cy="250.62" r="64.61" xlink:href="#Radial_Gradient_3"/><radialGradient id="Radial_Gradient_3-4" cx="467.54" cy="258.65" r="75.45" xlink:href="#Radial_Gradient_3"/><radialGradient id="Radial_Gradient_3-5" cx="463.24" cy="274.73" r="75.6" xlink:href="#Radial_Gradient_3"/><radialGradient id="Radial_Gradient_2" cx="450.41" cy="243.92" r="38.55" gradientUnits="userSpaceOnUse"><stop offset="0" stop-color="#e60856"/><stop offset="0.62" stop-color="#fc6ccb"/><stop offset="1" stop-color="#e60856"/></radialGradient><radialGradient id="Radial_Gradient_2-2" cx="478.97" cy="249.74" r="51.58" xlink:href="#Radial_Gradient_2"/><radialGradient id="Radial_Gradient_2-3" cx="457.82" cy="262.42" r="58" xlink:href="#Radial_Gradient_2"/><linearGradient id="Linear_Gradient_3-2" x1="316.64" y1="282.58" x2="366.74" y2="287.67" xlink:href="#Linear_Gradient_3"/><linearGradient id="Linear_Gradient_2" x1="417.07" y1="389.67" x2="425.86" y2="339.67" gradientUnits="userSpaceOnUse"><stop offset="0" stop-color="#fff"/><stop offset="1" stop-color="#ea0a58"/></linearGradient><linearGradient id="Linear_Gradient_2-2" x1="594.81" y1="389.07" x2="539.46" y2="357.82" xlink:href="#Linear_Gradient_2"/><linearGradient id="Linear_Gradient_2-3" x1="491.94" y1="448.51" x2="494.75" y2="395.41" xlink:href="#Linear_Gradient_2"/><linearGradient id="Linear_Gradient_2-4" x1="374.21" y1="191.36" x2="408.83" y2="221.3" xlink:href="#Linear_Gradient_2"/><linearGradient id="Linear_Gradient_2-5" x1="391.94" y1="155.18" x2="406.88" y2="185.07" xlink:href="#Linear_Gradient_2"/><linearGradient id="Linear_Gradient_2-6" x1="464.07" y1="144.42" x2="463.4" y2="200.51" xlink:href="#Linear_Gradient_2"/><linearGradient id="Linear_Gradient_2-7" x1="529.03" y1="145.85" x2="508.97" y2="188.43" xlink:href="#Linear_Gradient_2"/><linearGradient id="Linear_Gradient_2-8" x1="627.55" y1="216.56" x2="562.44" y2="229.75" xlink:href="#Linear_Gradient_2"/></defs><title>Bkomma</title><path class="cls-1" d="M478.78,273.5c-19.52-6.31-30.51-29.39-38-48.52-6.33-16.22-13-37-4.21-52.06,13.29-22.74,47.82-22,71.75-33,11.87,1.61,18.27,15.5,27.41,23.2,8.68,7.28,21.16,11.59,26,21.81,6.14,12.92,7.89,30.53.7,42.91C546.5,255.25,500.59,280.52,478.78,273.5Z" transform="translate(-337.43 -139.87)"/><path class="cls-2" d="M450.67,271.38c-12.29,9.91-41.26,9.5-63.32,7.75-12.15-1-18.34-16.31-28.83-22.5-4.61-2.72-11.52-2.07-14.76-6.33-9.47-12.43-4.23-31-6.33-46.43,4.63-6.75,16.1-3.14,23.9-5.63,15.43-4.91,29-20.92,45-18.29,20.5,3.4,45.68,20.08,47.13,40.8C454.63,237.22,457.49,260.93,450.67,271.38Z" transform="translate(-337.43 -139.87)"/><path class="cls-3" d="M496.38,290.37c0.58-17.59,10.33-35.09,22.5-47.82,17-17.8,43.61-23,65.42-34.47,11.54,0.84,21.06,11.24,28.14,20.41,6.31,8.17,7.5,19.22,11.24,28.83,2,16.92-2.65,34.16-7,50.64-2.58,9.75-4.19,20.92-11.26,28.14-12.64,12.89-31.88,22.13-49.92,21.11-16.15-1-31.6-11.71-42.22-23.92C503.17,321.67,495.89,305.73,496.38,290.37Z" transform="translate(-337.43 -139.87)"/><path class="cls-4" d="M486.53,294.6c-15.13,10-24.23,27-35.16,41.49-7.87,10.36-18.41,19.81-21.81,32.35-1.91,7,.93,14.54,1.4,21.81,3.63,6.61,11.66,9.77,18.29,13.36,10.57,5.7,21.9,10.73,33.77,12.66,13.89,2.28,28.88,3.14,42.19-1.4,6.84-2.33,10.85-10.05,17.59-12.66,3.72-1.47,8-1,11.94-1.42,7.61-5.84,8-17.5,10.57-26.72,4.19-15.13,8.5-30.76,7.73-46.43-0.79-16.24-8.42-31.42-12.66-47.13-11.61-8-28.34,1.42-42.19,4.24C507.36,286.95,495.75,288.51,486.53,294.6Z" transform="translate(-337.43 -139.87)"/><path class="cls-5" d="M450,308.66C442,299.28,431.89,292,422.51,284c-14-11.87-24.65-32.51-42.89-34.46-8.87-.93-16.24,7.42-23.92,12-3.19,1.89-6.1,4.24-9.12,6.33-3.52,5.4-2.14,12.71-3.54,19s-6,12.55-4.91,19c0.75,4.7,6,7.54,7.73,12,1.49,3.77,1.42,8,2.12,12,5.33,6.17,16.57,3,23.2,7.73,5.33,3.77,6.66,11.7,12,15.47,14.5,10.31,32.88,15.85,50.64,16.9,17.22,1,33.77-7.05,50.64-10.57,5.82-4.65,11.43-13.31,9.14-20.39-4.56-14.19-27.93-12.17-38.68-22.5C452.67,314.29,451.93,311,450,308.66Z" transform="translate(-337.43 -139.87)"/><path class="cls-6" d="M461.91,286.16c-26.58,7.61-63.77,3.42-80.87-18.29-10.75-13.62-2-34.91.7-52,2.1-13.34,8-25.79,12-38.7,3-3.44,8.94-2.89,12.64-5.61,6-4.45,9.87-11.26,14.78-16.89,5.24-1.72,10.71,2.82,16.17,3.51,4.89,0.65,10-.47,14.78.72,11.31,2.79,22.64,7.38,31.65,14.75,16.85,13.85,40.4,31,38.68,52.76C520.16,254.62,489.16,278.36,461.91,286.16Z" transform="translate(-337.43 -139.87)"/><path class="cls-7" d="M495,285.46c5.63-11.73,8.61-24.81,15.45-35.89,9.19-14.85,16.92-35.47,33.77-40.07,9.59-2.63,20.76,3.19,28.14,9.84s8.45,17.8,12.66,26.72c-0.86,2.49-5.42,1.47-7,3.51-8.22,10.61-5.63,26.27-8.45,39.4-8.54,15-22.6,27.34-38,35.16-19.36,9.87-42.19,18.29-64,12.66C456,321.21,486.56,302.94,495,285.46Z" transform="translate(-337.43 -139.87)"/><path class="cls-8" d="M476.06,333.21c-7.33-4.35,17-3.93,44.5-26.95,16.64-13.94,20.36-19.71,33.46-23.39,3.91-1.09,14.94-7.75,12.15.77-5,15-18.73,25.2-31.88,33.07C517,327.09,486.49,339.43,476.06,333.21Z" transform="translate(-337.43 -139.87)"/><path class="cls-9" d="M458.4,323.44c-4.77,5.37-13.27,7.84-20.39,7-14.54-1.63-27.83-12-37.28-23.2-10.33-12.19-14.89-28.69-18.29-44.31-2.65-12.15-1-24.85-1.4-37.28,2.21-3.33,8.05-1.82,11.24-4.21,7-5.28,7.77-17,15.47-21.11,10.78-5.72,26-7.52,36.56-1.42,17.89,10.36,26,34.42,28.86,54.88C476.41,277.31,474.11,305.66,458.4,323.44Z" transform="translate(-337.43 -139.87)"/><path class="cls-10" d="M469.64,286.16c-11-18.38-15.5-41.17-14.76-62.6,0.47-13.47,2.47-29.09,12-38.68,9.17-9.29,24.23-11.85,37.26-12,14.69-.14,28.14,8.45,42.21,12.66,2.19,2.77.56,7,.7,10.54,0.56,13.12,3.28,26.53.7,39.4-3.56,17.8-10.17,36-21.81,49.94-8.31,10-19.36,22.64-32.35,21.81C482.95,306.57,475.11,295.28,469.64,286.16Z" transform="translate(-337.43 -139.87)"/><path class="cls-11" d="M461.7,302.82c-21.39-1.58-43-20.5-49.66-40.86-3.49-10.66,4.33-22.09,8.33-32.54,2.6-6.8,5.28-13.92,10.12-19.34,9.66-10.89,22.29-19.9,36-24.62,9-3.1,19-1.19,28.58-1.77,12.94,5.79,21,20.27,26.37,33.42,5.91,14.59,11.89,33,4.84,47C515.09,286.58,486.74,304.71,461.7,302.82Z" transform="translate(-337.43 -139.87)"/><path class="cls-12" d="M465.66,272.94c-13,.07-28.74-8.5-33.09-20.78-3.49-9.89,3.26-21.92,10.24-29.79,8.75-9.84,23.74-11.42,35.61-17.13,8.12,1.79,12.52,11.68,15.82,19.34,3.68,8.54,7.45,19.27,3.52,27.69C492.37,263.79,478.39,272.87,465.66,272.94Z" transform="translate(-337.43 -139.87)"/><path class="cls-13" d="M458.58,264.19c-6-.19-12.5-4.65-14.78-10.19-3.12-7.61,3-16.17,4.59-24.27,2.56-5.21,6.47-15.71,11.59-13,6,3.17,14.06,3.23,18.29,8.45,5.19,6.33,8.82,16.36,5.63,23.9C480.06,258.11,468.4,264.51,458.58,264.19Z" transform="translate(-337.43 -139.87)"/><path class="cls-14" d="M463.87,255.74c-5.82-1-5.68-10.66-6.33-16.52-0.47-4.12-.68-8.94,1.75-12.31,1.84-2.54,5.63-2.82,8.45-4.21,6.17,1.88,10.08,10.45,9.5,16.87C476.6,246.55,470.75,256.88,463.87,255.74Z" transform="translate(-337.43 -139.87)"/><path class="cls-15" d="M463.87,255.74c-5.82-1,14.75-22.5,3.86-33,6.17,1.88,11,10,10.54,16.52C477.74,246.5,470.75,256.88,463.87,255.74Z" transform="translate(-337.43 -139.87)"/><path class="cls-16" d="M458.58,264.19c-6-.19-12.34-4.72-14.78-10.19-3.35-7.56,1.65-16.52,3.17-24.62,2.7-5.4,7.89-15.36,13-12.66-22.5,23.2,25.32,27.44,23.92,32.35C480.06,258.11,468.4,264.51,458.58,264.19Z" transform="translate(-337.43 -139.87)"/><path class="cls-17" d="M465.66,274.68c-7,0-13.13-5.31-18.43-10,17-1.51,54.27-26.49,31.18-59.41,8.12,1.79,12.89,11.36,16.38,18.94,4.61,10,9.89,22.76,5,32.56C494,268.19,478.5,274.78,465.66,274.68Z" transform="translate(-337.43 -139.87)"/><path class="cls-18" d="M447.67,297.61c-11.73-1.19-20.76-15.19-23.2-26.74-1.65-7.8,4.7-15.24,7.05-22.85,3.07-.68,3.28,6.26,6.31,7,9.73,2.49,21.15,3.26,31.65,4.24,11.68,1,23.22-3.54,34.81-5.28C513.64,275.89,471.38,300,447.67,297.61Z" transform="translate(-337.43 -139.87)"/><path class="cls-19" d="M487.42,311.31c13.87-2.42,24-18.9,26.74-32.7,2-10.5-6.35-20.41-9.49-30.6-4.58,11.26-6.28,14.47-12.31,19-8.33,6.21-19.55,8-29.91,8.8-14.61,1.14-29.06-3.75-43.61-5.63C410.08,295.35,461.17,315.9,487.42,311.31Z" transform="translate(-337.43 -139.87)"/><path class="cls-20" d="M461.05,330.65c-8.28,3.47-21.2-1.72-28.49-8.45-13.12-12.08-12.89-33.28-19.34-49.92,4.82-3.79,9.68,7.66,15.1,10.54,6.56,3.49,13.47,6.63,20.76,8.1a92.74,92.74,0,0,0,31,.7c9.87-1.44,20-4,28.49-9.15,3.68-2.26,6.1-6.1,9.15-9.14,10.68,8-10.05,25.55-19.36,35.16C488.28,318.9,476.18,324.32,461.05,330.65Z" transform="translate(-337.43 -139.87)"/><path class="cls-21" d="M427.75,244.48a14.14,14.14,0,0,1,3.51-11c1.42-1.44,4.47-3.56,5.72-2-0.23,1.54-1.91,2.16-2.21,3.51-1.23,5.54-1.6,12.54,2,16.92,1.51,1.84,4.51,1.56,6.82,2.21a57.72,57.72,0,0,0,9,2.19c10.05,1.16,20.27.6,30.35-.21,3.23-.28,6.45-1.1,9.66-1.54,4-.58,7.91-1,11.87-1.56,0.77,3-5.77,2.44-8.8,3.3a101.73,101.73,0,0,1-15.38,3.07c-6.61.84-13.33,1.63-20,1.12-4.19-.35-8.22-1.75-12.31-2.65-4.77-1-10.36-.4-14.29-3.28A15.29,15.29,0,0,1,427.75,244.48Z" transform="translate(-337.43 -139.87)"/><path class="cls-22" d="M507.52,228c-2.21-2.26-6.61-4-9.22-2.21-2,1.37-1.19,4.82-1.09,7.26,0.16,6,4.21,11.61,3.72,17.57a21.32,21.32,0,0,1-4.4,11.45c-1.65,2-4.24,3.19-6.59,4.4a57.51,57.51,0,0,1-11.66,4.37,66.2,66.2,0,0,1-13.85,2.21c-6.21.3-12.47-.42-18.66-1.09-5-.56-9.77-2.28-14.73-2.42-4.21-.12-8.35.86-12.55,1.3-0.19,3.17,6.15,1.56,9.24,2.21,5.3,1.09,10.68,2.07,16.06,2.86,4.59,0.65,9.19,1.51,13.82,1.54,4.21,0,8.35-1.19,12.54-1.33,2.12-.07,4.28.63,6.38,0.21,4.19-.81,8-3.1,11.64-5.26,3.47-2,6.45-4.86,9.68-7.26,2.7-2,6.4-3,8.12-5.93,1.3-2.14.37-5.07,1.12-7.47,0.84-2.72,3.4-4.87,3.72-7.7C511.41,237.73,511.06,231.58,507.52,228Z" transform="translate(-337.43 -139.87)"/><path class="cls-23" d="M407.53,271.08c0.81,3.37,4.37,5.42,6.82,7.91,3.77,3.84,8.05,7.17,12.08,10.77,3.61,1.49,7.89-.25,11.66.65,3.35,0.82,6.31,2.79,9.45,4.17,2.7,0.28,5.21-1.63,7.91-1.75,4.07-.19,8,1.44,12.1,1.54a101.79,101.79,0,0,0,17.8-1.54,99.74,99.74,0,0,0,18.66-4.4c4-1.49,8.12-3.21,11.45-5.93,3.1-2.56,6.15-5.66,7.47-9.45,0.42-1.26,1-3.12,0-4s-3,.23-4.4.88c-5.54,2.65-8.91,8.57-14.08,11.87a41.08,41.08,0,0,1-10.33,4.82c-2.33.72-4.84,0.7-7.24,1.12-5,.84-9.89,2.51-14.94,2.84a74.36,74.36,0,0,1-18-1.09c-4.75-.84-9.63-1.84-13.84-4.17-5.35-3-9.17-8.15-13.85-12.1-5.28-4.47-10.71-8.8-16.06-13.17C406.59,261.28,406.64,267.42,407.53,271.08Z" transform="translate(-337.43 -139.87)"/><path class="cls-24" d="M365.4,259.53c-5.28.72-13.08,3.44-16.87,8.45-4.49,5.89-2.35,14.64-4.24,21.81-0.84,3.23-3.51,6.19-3.17,9.5,0.63,5.7,3.21,13.54,8.8,14.78,3.45,0.75,11.52-.23,16.17-2.82,4.86-2.7-11.54-13.8-8.45-27.44C359.54,275.55,374.36,258.35,365.4,259.53Z" transform="translate(-337.43 -139.87)"/><path class="cls-25" d="M387,334.91c0.53,6,13.82,12.94,22.53,15.94,10.92,3.75,23.06,1.72,34.61,1.65,14.41-.12,23.78-9.36,20-10-10.89-1.77-32.88.42-49.15-1.58C405.57,339.8,386.19,325.42,387,334.91Z" transform="translate(-337.43 -139.87)"/><path class="cls-26" d="M547.09,390.28c-4.91-1.37-15.75,2.58-18.41-3-3.89-8.19,15.82-18.52,19.24-36.63,2.26-12.05,2.61-22.46,9.15-19.34,7.38,3.51,4.33,20.29,2.68,30.28C558,371.89,556.28,385.3,547.09,390.28Z" transform="translate(-337.43 -139.87)"/><path class="cls-27" d="M522.77,392.07c3.37,3.56.18,11.47-3.86,14.29-14.5,10.08-47.24,3.28-52.73-5-6.49-9.73,18.06-2.75,29.69-3.65C514.16,396.35,516.46,385.41,522.77,392.07Z" transform="translate(-337.43 -139.87)"/><path class="cls-28" d="M385.67,225.3c1.58-2.75,6.24-1,8.66-2.89,6.19-4.75,6.56-15,12.87-19.55,6.77-4.89,14.34-6.28,24.18-6.59-6.28,3.61-14.31,4.75-19.76,9.66-6.14,5.56-7.35,16.52-13.17,21.15-9.33,7.4-8,23.25-14.1,17.55C381.41,241.92,382.23,231.21,385.67,225.3Z" transform="translate(-337.43 -139.87)"/><path class="cls-29" d="M423.89,155.53c3.49,1.28,5.33,9.19,4.1,13.82-5,18.69-33.19,20.67-42,40-2-1.3,6.38-19.55,9.68-31.42,1.21-4.37,8.94-2.58,12.29-5.49C420.35,161.7,419,153.79,423.89,155.53Z" transform="translate(-337.43 -139.87)"/><path class="cls-30" d="M492.82,185c-5.77,2.89-10.92-1.84-18.15-.47-18.73,3.56-37.93,16.64-44.91,30,17.8-15.71,44-22.62,64.86-18.48C498.17,196.75,497.91,182.44,492.82,185Z" transform="translate(-337.43 -139.87)"/><path class="cls-31" d="M533.61,201.26c4.42,5.07,14-11.82,12.38-14.29-7.7-.56-19-11.54-39-13.47-10.66-1-25,2.49-31.58,6.33C497.63,175.43,522.63,188.62,533.61,201.26Z" transform="translate(-337.43 -139.87)"/><path class="cls-32" d="M583,245.36c-3.33.79-16-2.58-16.17-7-0.56-12.64-4.68-17.59-12.92-26.67,6.87-1.14,20.48,7.19,23.64,16C582.3,240.78,584.9,244.92,583,245.36Z" transform="translate(-337.43 -139.87)"/></svg>