<svg id="Lager_1" data-name="Lager 1" xmlns="http://www.w3.org/2000/svg" viewBox="0 0 212 40"><defs><style>.cls-1{fill:#f60b7b;}</style></defs><title>Logga</title><path class="cls-1" d="M382.64,260v12.27l6.84-6.58h9.09l-5.42,5.12L401,282.09H391.8l-4.4-6.41-4.76,4.63v1.79h-8.86V260h8.86Z" transform="translate(-373.78 -260)"/><path class="cls-1" d="M411.6,272.13h5.19c2,0,2.71-.4,2.71-1s-0.46-1-1.75-1H412.3a13.91,13.91,0,0,0-6.41,1.59l-2.61-4.43c0.93-.79,4.56-1.59,9.36-1.59h9c5.09,0,6.94,2.35,6.94,5.42v7.47a6.17,6.17,0,0,0,1,3.37v0.13h-8.83a9.4,9.4,0,0,1-.76-2.25h-0.13c-0.6.73-2.48,2.25-6.05,2.25H410c-3.84,0-6.78-1.85-6.78-5.06S406.64,272.13,411.6,272.13Zm3.21,5.62h1.75c1.79,0,2.68-.53,3-1.19v-1.85a5.71,5.71,0,0,1-2.65.46h-2.12c-1.45,0-2.28.56-2.28,1.36S413.36,277.76,414.81,277.76Z" transform="translate(-373.78 -260)"/><path class="cls-1" d="M443.87,265.69v16.47c0,4.23-1.55,5.79-6.05,5.79h-1.49a16.5,16.5,0,0,1-6.65-1.16l2.51-4.53h0.13a1.74,1.74,0,0,0,1.36.6,1.09,1.09,0,0,0,1.32-1.16v-16h8.86Zm-8.2-5.69h7.54v4.66h-7.54V260Z" transform="translate(-373.78 -260)"/><path class="cls-1" d="M458.71,265.39h7.51a29.47,29.47,0,0,1,9,1.36L473,270.61a18.48,18.48,0,0,0-6.68-1H460.4c-1.29,0-1.62.26-1.62,0.86s0.33,0.76,1.62.76h7.08c5.89,0,8.7,2,8.7,5.62,0,3.37-3,5.55-9.26,5.55h-8.2c-4.43,0-8-.63-9.75-1.62l2.45-4.17c1.32,1,3.64,1.55,7.11,1.55h6.88c1.36,0,1.75-.3,1.75-0.86s-0.46-.89-1.75-0.89h-7.24c-5.49,0-8.33-1.85-8.33-5.42C449.82,267.6,452.4,265.39,458.71,265.39Z" transform="translate(-373.78 -260)"/><path class="cls-1" d="M488.63,272.13h5.19c2,0,2.71-.4,2.71-1s-0.46-1-1.75-1h-5.46a13.91,13.91,0,0,0-6.41,1.59l-2.61-4.43c0.93-.79,4.56-1.59,9.36-1.59h9c5.09,0,6.94,2.35,6.94,5.42v7.47a6.17,6.17,0,0,0,1,3.37v0.13h-8.83a9.4,9.4,0,0,1-.76-2.25H496.9c-0.6.73-2.48,2.25-6.05,2.25h-3.77c-3.84,0-6.78-1.85-6.78-5.06S483.67,272.13,488.63,272.13Zm3.21,5.62h1.75c1.79,0,2.68-.53,3-1.19v-1.85a5.71,5.71,0,0,1-2.65.46h-2.12c-1.45,0-2.28.56-2.28,1.36S490.38,277.76,491.84,277.76Z" transform="translate(-373.78 -260)"/><path class="cls-1" d="M520.47,265.39H528a29.47,29.47,0,0,1,9,1.36l-2.18,3.87a18.48,18.48,0,0,0-6.68-1h-5.92c-1.29,0-1.62.26-1.62,0.86s0.33,0.76,1.62.76h7.08c5.89,0,8.7,2,8.7,5.62,0,3.37-3,5.55-9.26,5.55h-8.2c-4.43,0-8-.63-9.75-1.62l2.45-4.17c1.32,1,3.64,1.55,7.11,1.55h6.88c1.36,0,1.75-.3,1.75-0.86s-0.46-.89-1.75-0.89h-7.24c-5.49,0-8.33-1.85-8.33-5.42C511.57,267.6,514.15,265.39,520.47,265.39Z" transform="translate(-373.78 -260)"/><path class="cls-1" d="M487.81,288.12v2.46h0.09a12.68,12.68,0,0,1,7.37-2.7,11.09,11.09,0,0,1,4.81.82L498,292.23a9.42,9.42,0,0,0-4.29-.92,12.07,12.07,0,0,0-5.75,1.64v6.81h-6.29V288.12h6.2Z" transform="translate(-373.78 -260)"/><path class="cls-1" d="M509.83,287.91h0.94c6.17,0,9.29,2.46,9.29,6.05s-3.12,6-9.29,6h-0.94c-6.17,0-9.29-2.44-9.29-6S503.66,287.91,509.83,287.91ZM510.3,297c2.11,0,3.26-1,3.26-3s-1.15-3.05-3.26-3.05S507,291.9,507,294,508.26,297,510.3,297Z" transform="translate(-373.78 -260)"/><path class="cls-1" d="M529.48,287.91h5.33a20.92,20.92,0,0,1,6.36,1l-1.55,2.75a13.11,13.11,0,0,0-4.74-.7h-4.2c-0.92,0-1.15.19-1.15,0.61s0.23,0.54,1.15.54h5c4.18,0,6.17,1.43,6.17,4,0,2.39-2.14,3.94-6.57,3.94h-5.82c-3.15,0-5.7-.45-6.92-1.15l1.74-3c0.94,0.68,2.58,1.1,5,1.1h4.88c1,0,1.24-.21,1.24-0.61s-0.33-.63-1.24-0.63h-5.14c-3.9,0-5.91-1.31-5.91-3.85S525,287.91,529.48,287.91Z" transform="translate(-373.78 -260)"/><path class="cls-1" d="M553.7,287.91h0.94c6.17,0,9.29,2.46,9.29,6.05s-3.12,6-9.29,6H553.7c-6.17,0-9.29-2.44-9.29-6S547.53,287.91,553.7,287.91Zm0.47,9.08c2.11,0,3.26-1,3.26-3s-1.15-3.05-3.26-3.05-3.26,1-3.26,3.05S552.13,297,554.17,297Z" transform="translate(-373.78 -260)"/><path class="cls-1" d="M573.51,288.12v2.46h0.09a12.68,12.68,0,0,1,7.37-2.7,11.09,11.09,0,0,1,4.81.82l-2.14,3.52a9.42,9.42,0,0,0-4.29-.92A12.07,12.07,0,0,0,573.6,293v6.81h-6.29V288.12h6.2Z" transform="translate(-373.78 -260)"/></svg>